<svg width="23" height="23" viewBox="0 0 23 23" fill="none" xmlns="http://www.w3.org/2000/svg">
<path opacity="0.1" fill-rule="evenodd" clip-rule="evenodd" d="M0 11.1371C0 4.98625 4.98625 0 11.1371 0C17.288 0 22.2742 4.98625 22.2742 11.1371C22.2742 17.288 17.288 22.2742 11.1371 22.2742C4.98625 22.2742 0 17.288 0 11.1371Z" fill="white"/>
<path fill-rule="evenodd" clip-rule="evenodd" d="M10.8036 9.05249L10.8269 9.43786L10.4374 9.39067C9.01961 9.20978 7.78097 8.59634 6.72929 7.56607L6.21514 7.05486L6.08271 7.43237C5.80226 8.27389 5.98144 9.1626 6.5657 9.76031C6.87731 10.0906 6.8072 10.1378 6.26967 9.9412C6.08271 9.87828 5.91912 9.83109 5.90354 9.85469C5.849 9.90974 6.03597 10.6254 6.18398 10.9086C6.38653 11.3018 6.79941 11.6872 7.25124 11.9152L7.63296 12.0961L7.18112 12.104C6.74487 12.104 6.72929 12.1118 6.77604 12.277C6.93184 12.7882 7.54726 13.3309 8.2328 13.5668L8.71579 13.732L8.29512 13.9836C7.67191 14.3454 6.93963 14.5499 6.20735 14.5656C5.85679 14.5735 5.56856 14.605 5.56856 14.6285C5.56856 14.7072 6.51896 15.1476 7.07206 15.3206C8.73137 15.8318 10.7023 15.6116 12.1824 14.7387C13.2341 14.1173 14.2858 12.8826 14.7765 11.6872C15.0414 11.0501 15.3063 9.88615 15.3063 9.32775C15.3063 8.96598 15.3297 8.91879 15.7659 8.48623C16.023 8.23456 16.2645 7.9593 16.3112 7.88065C16.3891 7.73122 16.3813 7.73122 15.984 7.86492C15.3219 8.10086 15.2284 8.06941 15.5556 7.71549C15.7971 7.46383 16.0853 7.00767 16.0853 6.87397C16.0853 6.85038 15.9684 6.8897 15.836 6.96049C15.6958 7.03913 15.3842 7.1571 15.1505 7.22788L14.7298 7.36158L14.3481 7.10205C14.1378 6.96049 13.8417 6.80319 13.6859 6.756C13.2886 6.6459 12.681 6.66163 12.3226 6.78746C11.3489 7.14137 10.7334 8.05368 10.8036 9.05249Z" fill="white"/>
</svg>
